<?xml version="1.0" encoding="UTF-8"?>
<svg width="62px" height="62px" viewBox="0 0 62 62" version="1.1" xmlns="http://www.w3.org/2000/svg" xmlns:xlink="http://www.w3.org/1999/xlink">
    <!-- Generator: Sketch 49 (51002) - http://www.bohemiancoding.com/sketch -->
    <title>profacto_icon_std_small</title>
    <g id="Page-1" stroke="none" stroke-width="1" fill="none" fill-rule="evenodd">
        <g id="profacto_schriftlogo_std_small" transform="translate(1.000000, 0.000000)" fill-rule="nonzero">
            <g id="Group" transform="translate(0.000000, 3.647799)">
                <g transform="translate(22.886792, 43.773585)" id="Shape">
                    <path d="M6.11320755,11.1257862 C3.01257862,11.1257862 0.641509434,8.75471698 0.641509434,5.65408805 C0.641509434,2.55345912 3.01257862,0.182389937 6.11320755,0.182389937 C9.21383648,0.182389937 11.5849057,2.55345912 11.5849057,5.65408805 C11.5849057,8.75471698 9.21383648,11.1257862 6.11320755,11.1257862 Z" fill="#ffffff"></path>
                </g>
                <circle id="Oval" fill="#ffffff" cx="29" cy="21.1572327" r="5.65408805"></circle>
                <g transform="translate(22.886792, 29.182390)" id="Shape">
                    <path d="M6.11320755,11.490566 C3.01257862,11.490566 0.641509434,9.11949686 0.641509434,6.01886792 C0.641509434,2.91823899 3.01257862,0.547169811 6.11320755,0.547169811 C9.21383648,0.547169811 11.5849057,2.91823899 11.5849057,6.01886792 C11.5849057,9.11949686 9.21383648,11.490566 6.11320755,11.490566 Z" fill="#ffffff"></path>
                </g>
                <circle id="Oval" stroke="#ffffff" stroke-width="0.1234" fill="#ffffff" cx="15.3207547" cy="8.57232704" r="4.19496855"></circle>
                <circle id="Oval" stroke="#ffffff" stroke-width="0.1234" fill="#ffffff" cx="15.3207547" cy="20.7924528" r="4.19496855"></circle>
                <circle id="Oval" fill="#ffffff" cx="15.3207547" cy="33.0125786" r="4.19496855"></circle>
                <circle id="Oval" stroke="#ffffff" stroke-width="0.1234" fill="#ffffff" cx="3.10062893" cy="3.64779874" r="3.10062893"></circle>
                <circle id="Oval" stroke="#ffffff" stroke-width="0.1234" fill="#ffffff" cx="3.10062893" cy="14.2264151" r="3.10062893"></circle>
                <circle id="Oval" stroke="#ffffff" stroke-width="0.1234" fill="#ffffff" cx="3.10062893" cy="24.8050314" r="3.10062893"></circle>
                <circle id="Oval" fill="#ffffff" cx="3.10062893" cy="35.3836478" r="3.10062893"></circle>
                <g transform="translate(36.477987, 21.886792)" id="Shape">
                    <path d="M7.29559748,14.408805 C3.64779874,14.408805 0.547169811,11.490566 0.547169811,7.66037736 C0.547169811,4.01257862 3.46540881,0.911949686 7.29559748,0.911949686 C10.9433962,0.911949686 14.0440252,3.83018868 14.0440252,7.66037736 C13.8616352,11.3081761 10.9433962,14.408805 7.29559748,14.408805 Z" fill="#ffffff"></path>
                </g>
                <circle id="Oval" fill="#ffffff" cx="43.7735849" cy="11.1257862" r="6.74842767"></circle>
            </g>
        </g>
    </g>
</svg>
