<?xml version="1.0" encoding="UTF-8"?>
<svg width="96px" height="94px" viewBox="0 0 96 94" version="1.1" xmlns="http://www.w3.org/2000/svg" xmlns:xlink="http://www.w3.org/1999/xlink">
    <title>Group 2</title>
    <g id="Page-1" stroke="none" stroke-width="1" fill="none" fill-rule="evenodd">
        <g id="Group-2" fill-rule="nonzero">
            <g id="Group">
                <path d="M86,0 L10,0 C6.7,0 4,2.7 4,6 L4,9 L4,11 L3,11 L92,11 L92,6 C92,2.7 89.3,0 86,0" id="Path" fill="#D9D7D4"></path>
                <polyline id="Path" fill="#A6A6A4" points="4 14 92 14 92 10 4 10"></polyline>
                <path d="M88,12 L8,12 C4.7,12 2,14.7 2,18 L2,21 L2,23 L2,23 L94,23 L94,18 C94,14.7 91.3,12 88,12" id="Path" fill="#D9D7D4"></path>
                <polyline id="Path" fill="#A6A6A4" points="2 27 94 27 94 22 2 22"></polyline>
                <rect id="Rectangle" fill="#BFBFBE" x="2" y="20" width="92" height="2"></rect>
                <rect id="Rectangle" fill="#BFBFBE" x="4" y="8" width="88" height="2"></rect>
                <g transform="translate(0.000000, 24.000000)">
                    <g id="Path">
                        <path d="M90,2 L6,2 C2.7,2 0,4.7 0,8 L0,14 L0,50 L96,50 L96,8 C96,4.7 93.3,2 90,2 Z" fill="#A6A6A4"></path>
                        <path d="M90,0 L6,0 C2.7,0 0,2.7 0,6 L0,12 L0,48 L96,48 L96,6 C96,2.7 93.3,0 90,0 Z" fill="#D9D7D4"></path>
                    </g>
                    <g transform="translate(0.000000, 48.000000)" id="Shape">
                        <path d="M4.6,22 L91.3,22 C93.9,22 95.9,19.9 95.9,17.4 L95.9,2 L0,2 L0,17.4 C0,19.9 2.1,22 4.6,22 Z M76,4 C80.4,4 84,7.6 84,12 C84,16.4 80.4,20 76,20 C71.6,20 68,16.4 68,12 C68,7.6 71.6,4 76,4 Z M20,4 C24.4,4 28,7.6 28,12 C28,16.4 24.4,20 20,20 C15.6,20 12,16.4 12,12 C12,7.6 15.6,4 20,4 Z" fill="#A6A6A4"></path>
                        <path d="M4.6,20 L91.3,20 C93.9,20 95.9,17.9 95.9,15.4 L95.9,0 L0,0 L0,15.4 C0,17.9 2.1,20 4.6,20 Z M76,2 C80.4,2 84,5.6 84,10 C84,14.4 80.4,18 76,18 C71.6,18 68,14.4 68,10 C68,5.6 71.6,2 76,2 Z M20,2 C24.4,2 28,5.6 28,10 C28,14.4 24.4,18 20,18 C15.6,18 12,14.4 12,10 C12,5.6 15.6,2 20,2 Z" fill="#CC2929"></path>
                    </g>
                </g>
                <rect id="Rectangle" fill="#737373" x="60" y="36" width="28" height="4"></rect>
                <rect id="Rectangle" fill="#737373" x="60" y="48" width="28" height="4"></rect>
                <rect id="Rectangle" fill="#737373" x="60" y="60" width="28" height="4"></rect>
            </g>
            <path d="M36,41.1 C36,45.3 32.6,48.7 28.5,48.7 C24.4,48.7 21,45.3 21,41.1 L21,38.8 C21,34.6 24.4,31.2 28.5,31.2 C32.6,31.2 36,34.6 36,38.8 L36,41.1 Z M29.8,67.4 L29.8,67.4 C29.4,67.4 29,67.4 28.7,67.4 C28.3,67.4 27.9,67.4 27.6,67.4 L27.6,67.4 C21.5,67.2 16.2,65.3 12.7,62.5 L13.6,58.7 C14.5,54.7 18,51.9 22.1,51.9 L35.6,51.9 C39.6,51.9 43.2,54.7 44.1,58.7 L45,62.5 C41.2,65.4 35.8,67.2 29.8,67.4 Z" id="Shape" fill="#737373"></path>
        </g>
    </g>
</svg>