<?xml version="1.0" encoding="UTF-8"?>
<svg width="43px" height="45px" viewBox="0 0 43 45" version="1.1" xmlns="http://www.w3.org/2000/svg" xmlns:xlink="http://www.w3.org/1999/xlink">
    <title>Customer</title>
    <g id="Page-1" stroke="none" stroke-width="1" fill="none" fill-rule="evenodd">
        <g id="Mobile-Customer-Template" transform="translate(-14.000000, -9.000000)">
            <rect id="BodyBG" fill-opacity="0.274830638" fill="#E5F1FF" fill-rule="nonzero" x="0" y="0" width="320" height="1024"></rect>
            <rect id="TopBar" fill="#DAEEDA" fill-rule="nonzero" x="0" y="0" width="320" height="113"></rect>
            <g id="prod-erf" transform="translate(8.000000, 8.000000)">
                <g id="Rahmen">
                    <rect id="Rectangle" x="0" y="0" width="56" height="56"></rect>
                </g>
                <g id="Ebene_1" transform="translate(4.666667, 7.777778)" fill-rule="nonzero">
                    <path d="M36.5555556,15.82 L34.5177778,14.9955556 L34.8133333,10.4377778 L34.8133333,10.4377778 L33.0088889,10.2977778 L32.62,10.2977778 L32.4177778,9.52 L31.8111111,7.17111111 L31.4844444,5.88 L29.3533333,6.39333333 L26.8955556,2.50444444 L26.8955556,2.50444444 L26.8955556,2.50444444 L25.0755556,3.62444444 L21.5133333,0.746666667 L21.5133333,0.746666667 L21.5133333,0.746666667 L20.1288889,2.30222222 L15.8511111,0.746666667 L15.8511111,0.746666667 L15.8511111,0.746666667 L15.1666667,2.41111111 L15.0266667,2.73777778 L10.4533333,2.48888889 L10.4533333,2.48888889 L10.4533333,2.48888889 L10.2511111,4.66666667 L5.86444444,5.78666667 L5.86444444,5.78666667 L5.86444444,5.78666667 L6.39333333,7.88666667 L2.53555556,10.3911111 L2.53555556,10.3911111 L2.53555556,10.3911111 L3.68666667,12.2577778 L2.52,13.6733333 L2.52,13.6733333 L0.777777778,15.7733333 L0.777777778,15.7733333 L0.777777778,15.7733333 L2.45777778,17.1888889 L1.55555556,19.3044444 L0.7,21.4355556 L0.7,21.4355556 L0.7,21.4355556 L2.73777778,22.2755556 L2.48888889,26.8955556 L4.68222222,27.0511111 L5.81777778,31.4688889 L7.96444444,30.9555556 L8.97555556,32.5111111 L8.97555556,32.5111111 L10.4066667,34.7511111 L10.4066667,34.7511111 L12.2733333,33.6 L15.8044444,36.5088889 L17.22,34.8288889 L21.4666667,36.5555556 L22.2911111,34.5177778 L26.8488889,34.7977778 L26.8488889,33.8955556 L26.9422222,32.6044444 L28.5755556,32.1844444 L28.5755556,32.1844444 L31.3444444,31.4688889 L30.8311111,29.3377778 L32.3866667,28.3111111 L32.3866667,28.3111111 L34.6266667,26.8955556 L33.4755556,25.0288889 L36.3844444,21.5133333 L36.3844444,21.5133333 L34.7044444,20.0822222 L36.5555556,15.82 Z M15.0577778,17.9977778 C15.090913,17.7845266 15.1483229,17.5757633 15.2288889,17.3755556 L15.2288889,17.2511111 L15.4622222,16.7844444 L15.6177778,16.5511111 L15.8355556,16.2711111 L16.1622222,15.9288889 L16.2866667,15.8355556 C16.4500387,15.6937427 16.6272217,15.5686724 16.8155556,15.4622222 L16.8155556,15.4622222 C17.9987444,14.8188411 19.4392382,14.8749944 20.5687521,15.6085292 C21.698266,16.3420641 22.335434,17.635197 22.2288889,18.9777778 C22.1987384,19.2192329 22.1519606,19.4583194 22.0888889,19.6933333 L22.0888889,19.6933333 C22.0243686,19.8802144 21.9463865,20.0621727 21.8555556,20.2377778 L21.8555556,20.4088889 C21.7920833,20.5235896 21.719243,20.6328501 21.6377778,20.7355556 C21.568743,20.8406722 21.4906693,20.9395656 21.4044444,21.0311111 C21.3565722,21.0867954 21.3045732,21.1387944 21.2488889,21.1866667 C21.129103,21.3219072 20.9932878,21.4420515 20.8444444,21.5444444 L20.8444444,21.5444444 C20.4546539,21.8167668 20.0164295,22.0121199 19.5533333,22.12 C18.6061636,22.3641694 17.600648,22.2185654 16.7616457,21.7157487 C15.9226435,21.2129321 15.3201466,20.3948492 15.0888889,19.4444444 C14.9958109,18.9719477 14.9958109,18.4858301 15.0888889,18.0133333 L15.0577778,17.9977778 Z" id="Shape" fill="#57B057"></path>
                    <path d="M18.6666667,5.92659039 C13.5110052,5.91407649 8.85599919,9.01008266 6.87428299,13.769684 C4.89256678,18.5292853 5.97485443,24.0140814 9.61600902,27.6641495 C13.2571636,31.3142175 18.7392972,32.4099122 23.5037295,30.439839 C28.2681618,28.4697659 31.3755556,23.8223435 31.3755556,18.6666667 C31.3755556,11.6426907 25.6906217,5.94381923 18.6666667,5.92659039 Z M18.34,22.3066667 C16.330653,22.1276085 14.8461741,20.3546926 15.0229824,18.3451464 C15.1997907,16.3356002 16.9710434,14.8491372 18.9807863,15.0236953 C20.9905292,15.1982535 22.4789745,16.9678407 22.3066667,18.9777778 C22.228063,19.9534483 21.7598219,20.8563453 21.0076227,21.4826902 C20.2554235,22.1090351 19.2826635,22.4060378 18.3088889,22.3066667 L18.34,22.3066667 Z" id="Shape" fill="#88C788"></path>
                    <path d="M36.9755556,19.5533333 L29.5555556,36.1977778 L29.5555556,45.8888889 C29.5126458,46.1861518 29.6685453,46.4766597 29.9399774,46.6052329 C30.2114096,46.733806 30.5349516,46.6704019 30.7377778,46.4488889 L37.9711111,40.5222222 L45.9044444,23.7222222 L36.9755556,19.5533333 Z" id="Path" fill="#88C788"></path>
                    <path d="M46.6666667,22.0422222 L46.9466667,21.4666667 C47.618073,20.2619374 47.2034075,18.7414972 46.0133333,18.0444444 L41.16,15.7266667 C40.5684056,15.4882411 39.9058662,15.4972527 39.3209753,15.7516802 C38.7360845,16.0061077 38.2777941,16.4846572 38.0488889,17.08 L37.6755556,17.92 L46.6666667,22.0422222 Z" id="Path" fill="#88C788"></path>
                    <polygon id="Path" fill="#57B057" points="37.3955556 19.74 38.0644444 18.1066667 46.2466667 21.8711111 45.5 23.5511111"></polygon>
                </g>
            </g>
            <rect id="TopBar-Copy" fill="#E5F1FF" fill-rule="nonzero" x="0" y="0" width="320" height="113"></rect>
            <g id="Group-8-Copy-4" transform="translate(0.000000, 23.000000)"></g>
            <g id="kunden" transform="translate(8.000000, 4.000000)">
                <g id="Rahmen">
                    <rect id="Rectangle" x="0" y="0" width="56" height="56"></rect>
                </g>
                <g id="Group">
                    <rect id="Rectangle" x="0" y="0" width="56" height="56"></rect>
                    <path d="M26.4444444,49 L31.9822222,49 L47.7555556,47.7711111 C48.1286572,47.7493934 48.4728649,47.5631649 48.6951775,47.2627425 C48.9174901,46.96232 48.994964,46.5787086 48.9066667,46.2155556 L47.4444444,38.4377778 C47.4444444,38.4377778 47.2577778,37.3644444 46.9466667,37.1155556 C46.4466382,36.8117667 45.9269748,36.5415417 45.3911111,36.3066667 L38.8888889,33.3822222 L33.32,30.8311111 L33.32,30.8311111 L32.8533333,28.14 C35.2778744,26.5581736 36.7942862,23.9073468 36.9288889,21.0155556 L36.9288889,21.0155556 L37.5511111,17.5155556 L37.5511111,15.8666667 C37.511457,13.6469837 36.8307853,11.4861211 35.5911111,9.64444444 C34.9535766,9.18446454 34.1837697,8.94424111 33.3977778,8.96 C33.3977778,8.12 33.1022222,7.40444444 31.7333333,6.92222222 C30.5734245,6.45146114 29.3292299,6.22379999 28.0777778,6.25333333 L28.0777778,6.25333333 C22.8029015,6.42373502 18.5712176,10.6690475 18.4177778,15.9444444 L18.4177778,16.0377778 L18.4177778,16.0377778 L19.2733333,21.0933333 L19.2733333,21.0933333 C19.445765,23.8882804 20.9127748,26.4426033 23.24,28 L23.24,28 L22.6333333,30.8466667 L17.1111111,33.3822222 L10.5,36.4155556 C9.96413634,36.6504306 9.44447295,36.9206556 8.94444444,37.2244444 C8.63333333,37.4733333 8.44666667,38.5466667 8.44666667,38.5466667 L6.98444444,46.3244444 C6.89614708,46.6875974 6.97362099,47.0712089 7.19593359,47.3716314 C7.41824619,47.6720538 7.76245387,47.8582823 8.13555556,47.88 L23.9088889,49.1088889 L26.4444444,49.1088889" id="Path" fill="#B1C9E8" fill-rule="nonzero"></path>
                    <polygon id="Path" fill="#648BC7" fill-rule="nonzero" points="25.7288889 47.46 26.0711111 44.1311111 27.5333333 38.3133333 26.6777778 37.0222222 27.9844444 35.2488889 29.1822222 37.0222222 28.3266667 38.3133333 29.7577778 44.1622222 30.2244444 47.46"></polygon>
                    <path d="M28,36.5711111 L28.3111111,37.0222222 L27.9844445,37.52 L27.6577778,37.0377778 L28,36.5711111 M28,39.8844444 L29.0733333,44.2711111 L29.3533333,46.6666667 L26.5688889,46.6666667 L26.8177778,44.2866667 L28,39.8844444 M28,33.9266667 L28,34.0044444 L27.7666667,34.3466667 L25.7911111,36.9911111 L26.7711111,38.4533333 L25.3555556,44.0533333 L24.8888889,48.2222222 L31.1111111,48.2222222 L30.5044444,43.9911111 L29.1511111,38.4533333 L30.0844444,37.0688889 L30.0844444,37.0688889 L28,33.9577778 L28,33.9266667 Z" id="Shape" fill="#648BC7" fill-rule="nonzero"></path>
                    <path d="M36.96,20.2222222 C36.8267663,20.0323589 36.7814477,19.7944363 36.8355556,19.5688889 L37.4422222,17.1111111 L37.4422222,17.4844444 L36.96,20.2222222 Z M18.6666667,16.3333333 L19.4133333,19.5377778 C19.4634538,19.7413138 19.4238009,19.9565723 19.3044444,20.1288889 L18.6666667,16.3333333 Z M18.6666667,15.1355556 C19.1321147,10.2586847 23.1068782,6.46278551 28,6.22222222 L28,6.22222222 C29.2499792,6.19294688 30.4930989,6.41512145 31.6555556,6.87555556 C32.8533333,7.34222222 32.9466667,7.77777778 32.9466667,8.33777778 L32.9466667,9.52 L34.02,9.03777778 C34.5720018,9.13186665 35.1003718,9.33264728 35.5755556,9.62888889 C36.3278947,10.6366277 36.8580662,11.7924015 37.1311111,13.02 C37.0323262,12.8675046 36.9231803,12.7219767 36.8044444,12.5844444 C36.0418787,11.5705118 34.8672622,10.9489914 33.6,10.8888889 L33.4444444,10.8888889 L32.6977778,10.8888889 L32.6977778,11.62 L32.6977778,11.62 C32.6977778,11.62 32.3555556,12.8333333 28.2488889,12.8644444 L28.0777778,12.8644444 C26.3986441,12.6815406 24.7795704,12.1347715 23.3333333,11.2622222 C22.8586988,10.9979005 22.3206768,10.8687753 21.7777778,10.8888889 C21.1080594,10.8880964 20.4610124,11.1314303 19.9577778,11.5733333 C19.0537701,12.5523223 18.5488084,13.834148 18.5422222,15.1666667 L18.6666667,15.1355556 Z" id="Shape" fill="#648BC7" fill-rule="nonzero"></path>
                    <path d="M28.0933333,6.96888889 C29.2485369,6.93317919 30.3984117,7.13983871 31.4688889,7.57555556 C32.2777778,7.88666667 32.2777778,8.02666667 32.2777778,8.32222222 L32.2777778,10.2666667 L31.8888889,10.2666667 L31.9666667,11.4177778 C31.7488889,11.6044444 30.8933333,12.1177778 28.3111111,12.1333333 L28.0933333,12.1333333 C26.5286174,11.9481581 25.0247955,11.4167722 23.6911111,10.5777778 C23.1093619,10.2436413 22.4486064,10.0717374 21.7777778,10.08 L21.5444444,10.08 C23.1951799,8.17132203 25.5709275,7.04270086 28.0933333,6.96888889 L28.0933333,6.96888889 M34.2222222,9.84666667 C34.5490906,9.91481043 34.8673498,10.0191577 35.1711111,10.1577778 C35.2795779,10.2665066 35.3689743,10.3927133 35.4355556,10.5311111 C34.8864998,10.2686767 34.286316,10.1305813 33.6777778,10.1266667 L33.6,10.1266667 L34.2222222,9.84666667 M28.0933333,5.44444444 L28.0933333,5.44444444 C22.4547706,5.60656162 17.9194913,10.1350209 17.7488889,15.7733333 L17.7488889,15.8822222 L18.6666667,21.2644444 C19.1212684,21.2348235 19.5400365,21.0074098 19.8124171,20.6422401 C20.0847978,20.2770704 20.1834107,19.8108525 20.0822222,19.3666667 L19.2577778,15.7888889 L19.2577778,15.7888889 C19.2441647,15.5868958 19.2441647,15.3842153 19.2577778,15.1822222 C19.2654884,14.0424142 19.6728498,12.9414376 20.4088889,12.0711111 C20.7920572,11.7521288 21.2795558,11.5859361 21.7777778,11.6044444 C22.1699301,11.6079213 22.5549711,11.7095293 22.8977778,11.9 C24.4455542,12.8684897 26.1874811,13.484537 28,13.7044444 L28.2644444,13.7044444 C33.6,13.7044444 33.46,11.6511111 33.46,11.6511111 L33.5377778,11.6511111 C34.5660252,11.7160751 35.5121879,12.2347547 36.12,13.0666667 C36.8970284,14.0324962 37.1366602,15.3241699 36.7577778,16.5044444 L36.0422222,19.3044444 C35.919056,19.7599364 36.0092937,20.2467128 36.2875416,20.6277915 C36.5657895,21.0088702 37.0019679,21.2430549 37.4733333,21.2644444 L38.1266667,17.5311111 L38.1266667,15.7733333 C38.101604,13.3757397 37.3712414,11.0385794 36.0266667,9.05333333 C35.3890607,8.61790719 34.6494278,8.35528393 33.88,8.29111111 L33.6777778,8.29111111 C33.6777778,7.40444444 33.3666667,6.73555556 31.9044444,6.11333333 C30.6510162,5.62479318 29.3139014,5.38696645 27.9688889,5.41333333 L28.0933333,5.44444444 Z" id="Shape" fill="#648BC7" fill-rule="nonzero"></path>
                </g>
            </g>
        </g>
    </g>
</svg>
