<svg xmlns="http://www.w3.org/2000/svg" viewBox="0 0 36 36">
  <defs>
    <style>
      .cls-1 {
        fill: none;
      }
      .cls-2 {
        fill: #ffd300;
      }
      .cls-3 {
        fill: #ffbf00;
      }
    </style>
  </defs>
  <title>bestellungen</title>
  <g id="Rahmen"><rect class="cls-1" width="36" height="36"/></g>
  <g id="Ebene_1" data-name="Ebene 1"><path class="cls-2" d="M14,24H8.67c-.84,0-1.12,1.19-1.34,2L6,32.65c0,1,.47,1.35,1.33,1.35H28.67c.86,0,1.33-.34,1.33-1.35L28.67,26c-.22-.79-.5-1.95-1.34-2H22"/><path
    class="cls-2"
    d="M22,23V21a14.44,14.44,0,0,1-1.24-4.48V16.4c0-.15,0-.3,0-.45,0-.42.09-.83.17-1.24a6.82,6.82,0,0,1,1.67-3.07,5.89,5.89,0,0,0,1.59-4A6.07,6.07,0,0,0,20,1.93a7.62,7.62,0,0,0-1.51-.3l-.47,0-.47,0a7.62,7.62,0,0,0-1.51.3,6.07,6.07,0,0,0-4.25,5.68,5.89,5.89,0,0,0,1.59,4A6.82,6.82,0,0,1,15,14.71c.08.41.13.82.17,1.24,0,.15,0,.3,0,.45v.13A14.44,14.44,0,0,1,14,21v2"/><path class="cls-3" d="M22.05,27H14A1.83,1.83,0,0,0,12,28.69v.62A1.83,1.83,0,0,0,14,31h8.1A1.83,1.83,0,0,0,24,29.31v-.62A1.83,1.83,0,0,0,22.05,27Z"/><rect class="cls-3" x="7" y="34" width="22" height="1"/></g>
</svg>
