<svg xmlns="http://www.w3.org/2000/svg" viewBox="0 0 36 36">
  <defs>
    <style>
      .cls-1 {
        fill: none;
      }
      .cls-2 {
        fill: #dbcdb6;
      }
      .cls-3 {
        fill: #f5a876;
      }
      .cls-4 {
        fill: #e75a00;
      }
      .cls-5 {
        fill: #eb671b;
      }
    </style>
  </defs>
  <title>personal</title>
  <g id="Rahmen"><rect class="cls-1" width="36" height="36"/><path class="cls-1" d="M13.1,20.27h0l-.06,0Z"/><polygon class="cls-1" points="13.1 20.27 13.04 20.29 13.1 20.27 13.1 20.27"/><polygon class="cls-1" points="14.13 19.75 14.13 19.75 14.13 19.75 14.13 19.75"/><path class="cls-1" d="M18,8.42h0Z"/></g>
  <g id="Ebene_1" data-name="Ebene 1"><path class="cls-2" d="M17.85,19.1Z"/><path
    class="cls-3"
    d="M30.92,24.93a2.31,2.31,0,0,0-.34-.88,10.31,10.31,0,0,0-1-.54l-4.91-2.26-2.67-1L21.12,20l0,0h0l-.23-2h-.06a6.26,6.26,0,0,0,2.8-4.9l.1-2.46v0l0-.94h0a3.77,3.77,0,0,0-2.29-1.06l-.5-.08c-.48-.05-1-.1-1.62-.13H19L18,8.42s0,.07,0,.07,0,.06,0,.06h-.06V8.42c-.46,0-.89,0-1.25,0-1.08.07-3,.29-3,.29h0l-.21,0-1.78.4a9.63,9.63,0,0,0,.11,1.13c.12.81.28,3,.28,3a7.32,7.32,0,0,0,2.63,4.57h-.12L14,19.75v0L13.7,20l-2.38,1L6.11,23.5a10.81,10.81,0,0,0-1,.55c-.21.17-.33.88-.33.88L3.6,31.06l6.67.37,7.58.09,8,.1,6.23-.56Z"/><path class="cls-4" d="M19,8.44h0Z"/><path class="cls-4" d="M19.31,8.45c.6,0,1.14.08,1.62.13C20.45,8.52,19.89,8.48,19.31,8.45Z"/><path
    class="cls-5"
    d="M23.92,9.21a4.89,4.89,0,0,0-2.39-1L21,8.1C20.51,8,19.93,8,19.33,8h-.16A1.06,1.06,0,0,0,19,8h0l-.51,0-.43,0h-.12l-.55,0-.51,0-.34,0,1-.42-4.07.65c-.5.08-.9.17-1.2.24A5.51,5.51,0,0,1,17.76,4h0a5.37,5.37,0,0,1,2.13.39l.14.06a5.45,5.45,0,0,1,3,3l.21-.2-.16.41.22.08.17.07a1.4,1.4,0,0,1,.66.82V9l0,.08A.54.54,0,0,1,23.92,9.21Z"/><path
    class="cls-5"
    d="M17.78,4.5a4.89,4.89,0,0,1,1.95.35l.11.05,0,0h0a4.91,4.91,0,0,1,2.71,2.73l.6-.22L23,8.08a6.54,6.54,0,0,0-1.38-.4l-.57-.08c-.55-.07-1.2-.11-1.7-.13h-.26l2.37-1-8,1.27-.22,0-.4.08a5.1,5.1,0,0,1,4.93-3.34h0m0-1c-.76,0,0,0,0,0a5.92,5.92,0,0,0-6.14,5.65h.08a15.37,15.37,0,0,1,1.7-.38l.21,0h0s2-.16,3-.22h.19c.32,0,.68,0,1.06,0H18c.31,0,.62-.05.94-.05H19s0,0,.07,0h.2c.58,0,1.14.06,1.62.12l.5.07a3.74,3.74,0,0,1,2.29,1.07h0a1.13,1.13,0,0,0,.91-.41.3.3,0,0,0,.05-.21.45.45,0,0,0,0-.16V8.67a1.81,1.81,0,0,0-1-1.28l-.18-.08-.24-.08.25.08A5.9,5.9,0,0,0,20.29,4l-.2-.09a5.82,5.82,0,0,0-2.31-.42Z"/><path class="cls-5" d="M15.29,31.5l-4.79-.2V26.14l1-1.37V21.26l1-.5V25.5h11V21l1,.44V25l.14.14c.16.18.61.66.86,1V31.5Z"/><path class="cls-5" d="M12,21.57V26H24v-.77l.28.29c.19.2.5.55.72.83V31H15.33L11,30.82V26.31l.81-1.11.19-.27V21.57M13,20l-2,1v3.67L10,26v5.8l5.29.22H26V26a11.33,11.33,0,0,0-1-1.19V21.14l-2-.89V25H13V20Z"/><rect class="cls-1" x="35.78" width="36" height="36"/></g>
</svg>
