<?xml version="1.0" encoding="UTF-8"?>
<svg width="47px" height="50px" viewBox="0 0 47 50" version="1.1" xmlns="http://www.w3.org/2000/svg" xmlns:xlink="http://www.w3.org/1999/xlink">
    <title>project</title>
    <g id="Page-1" stroke="none" stroke-width="1" fill="none" fill-rule="evenodd">
        <g id="Mobile-Project-Template" transform="translate(-14.000000, -6.000000)">
            <rect id="BodyBG" fill-opacity="0.274830638" fill="#E5F1FF" fill-rule="nonzero" x="0" y="0" width="320" height="1024"></rect>
            <g id="prod-erf" transform="translate(8.000000, 8.000000)">
                <g id="Rahmen">
                    <rect id="Rectangle" x="0" y="0" width="56" height="56"></rect>
                </g>
            </g>
            <g id="proj-dok" transform="translate(8.000000, 4.000000)">
                <g id="Rahmen">
                    <rect id="Rectangle" x="0" y="0" width="56" height="56"></rect>
                </g>
                <g id="Ebene_1" transform="translate(6.222222, 2.555556)" fill-rule="nonzero">
                    <path d="M20.9844444,40.2377778 L20.9844444,4.46 L26.1177778,4.46 C27.5954463,4.46 28.7933333,5.65788702 28.7933333,7.13555556 L28.7933333,37.5622222 C28.7933333,39.0398908 27.5954463,40.2377778 26.1177778,40.2377778 L20.9844444,40.2377778 Z" id="Path" fill="#648BC7"></path>
                    <path d="M26.1177778,5.22222222 C27.1503221,5.2388794 27.9833428,6.07190014 28,7.10444444 L28,37.5622222 C27.9833428,38.5947665 27.1503221,39.4277873 26.1177778,39.4444444 L21.7777778,39.4444444 L21.7777778,5.22222222 L26.1488889,5.22222222 M26.1488889,3.66666667 L20.4866667,3.66666667 C20.3439431,3.67439812 20.2299537,3.78838753 20.2222222,3.93111111 L20.2222222,40.7355556 C20.2299537,40.8782791 20.3439431,40.9922685 20.4866667,41 L26.1177778,41 C28.01641,41 29.5555556,39.4608545 29.5555556,37.5622222 L29.5555556,7.10444444 C29.5555556,6.19268909 29.1933622,5.31827686 28.5486538,4.67356847 C27.9039454,4.02886007 27.0295331,3.66666667 26.1177778,3.66666667 L26.1488889,3.66666667 Z" id="Shape" fill="#648BC7"></path>
                    <path d="M21.7777778,3.27777778 L21.7777778,0.89777778 C21.7900229,0.67770159 21.6877644,0.46690215 21.5073409,0.34028919 C21.3269175,0.21367623 21.0939066,0.18919893 20.8911111,0.27555556 L0.917777778,3.55777778 C0.387450886,3.64871878 -5.1021584e-08,4.10859897 -5.1021584e-08,4.64666667 L-5.1021584e-08,40.02 C-5.1021584e-08,40.5580677 0.387450886,41.0179479 0.917777778,41.1088889 L20.8911111,44.3911111 C21.0939066,44.4774677 21.3269175,44.4529904 21.5073409,44.3263775 C21.6877644,44.1997645 21.7900229,43.9889651 21.7777778,43.7688889 L21.7777778,3.32444444 L21.7777778,3.27777778 Z" id="Path" fill="#B1C9E8"></path>
                    <path d="M38.8888889,48.7777778 L30.3333333,48.7777778 C28.1855593,48.7777778 26.4444444,47.0366629 26.4444444,44.8888889 L26.4444444,26.2222222 C26.4444444,25.1908248 26.8541655,24.2016707 27.5834736,23.4723625 C28.3127818,22.7430544 29.3019359,22.3333333 30.3333333,22.3333333 L42.7777778,22.3333333 C44.9255518,22.3333333 46.6666667,24.0744482 46.6666667,26.2222222 L46.6666667,41 L38.8888889,48.7777778 Z" id="Path" fill="#B1C9E8"></path>
                    <path d="M46.6666667,40.999944 L43.2133333,40.999944 C42.0651514,40.9958474 40.9627976,41.4501236 40.150905,42.2620162 C39.3390125,43.0739087 38.8847363,44.1762625 38.8888329,45.3244444 L38.8888329,48.7777778" id="Path" fill="#648BC7"></path>
                </g>
            </g>
        </g>
    </g>
</svg>
