<?xml version="1.0" encoding="UTF-8"?>
<svg width="47px" height="50px" viewBox="0 0 47 50" version="1.1" xmlns="http://www.w3.org/2000/svg" xmlns:xlink="http://www.w3.org/1999/xlink">
    <title>project</title>
    <g id="Page-1" stroke="none" stroke-width="1" fill="none" fill-rule="evenodd">
        <g id="Mobile-Project-Template" transform="translate(-14.000000, -6.000000)">
            <rect id="BodyBG" fill-opacity="0.274830638" fill="#E5F1FF" fill-rule="nonzero" x="0" y="0" width="320" height="1024"></rect>
            <rect id="TopBar" fill="#DAEEDA" fill-rule="nonzero" x="0" y="0" width="320" height="113"></rect>
            <g id="prod-erf" transform="translate(8.000000, 8.000000)">
                <g id="Rahmen">
                    <rect id="Rectangle" x="0" y="0" width="56" height="56"></rect>
                </g>
                <g id="Ebene_1" transform="translate(4.666667, 7.777778)" fill-rule="nonzero">
                    <path d="M36.5555556,15.82 L34.5177778,14.9955556 L34.8133333,10.4377778 L34.8133333,10.4377778 L33.0088889,10.2977778 L32.62,10.2977778 L32.4177778,9.52 L31.8111111,7.17111111 L31.4844444,5.88 L29.3533333,6.39333333 L26.8955556,2.50444444 L26.8955556,2.50444444 L26.8955556,2.50444444 L25.0755556,3.62444444 L21.5133333,0.746666667 L21.5133333,0.746666667 L21.5133333,0.746666667 L20.1288889,2.30222222 L15.8511111,0.746666667 L15.8511111,0.746666667 L15.8511111,0.746666667 L15.1666667,2.41111111 L15.0266667,2.73777778 L10.4533333,2.48888889 L10.4533333,2.48888889 L10.4533333,2.48888889 L10.2511111,4.66666667 L5.86444444,5.78666667 L5.86444444,5.78666667 L5.86444444,5.78666667 L6.39333333,7.88666667 L2.53555556,10.3911111 L2.53555556,10.3911111 L2.53555556,10.3911111 L3.68666667,12.2577778 L2.52,13.6733333 L2.52,13.6733333 L0.777777778,15.7733333 L0.777777778,15.7733333 L0.777777778,15.7733333 L2.45777778,17.1888889 L1.55555556,19.3044444 L0.7,21.4355556 L0.7,21.4355556 L0.7,21.4355556 L2.73777778,22.2755556 L2.48888889,26.8955556 L4.68222222,27.0511111 L5.81777778,31.4688889 L7.96444444,30.9555556 L8.97555556,32.5111111 L8.97555556,32.5111111 L10.4066667,34.7511111 L10.4066667,34.7511111 L12.2733333,33.6 L15.8044444,36.5088889 L17.22,34.8288889 L21.4666667,36.5555556 L22.2911111,34.5177778 L26.8488889,34.7977778 L26.8488889,33.8955556 L26.9422222,32.6044444 L28.5755556,32.1844444 L28.5755556,32.1844444 L31.3444444,31.4688889 L30.8311111,29.3377778 L32.3866667,28.3111111 L32.3866667,28.3111111 L34.6266667,26.8955556 L33.4755556,25.0288889 L36.3844444,21.5133333 L36.3844444,21.5133333 L34.7044444,20.0822222 L36.5555556,15.82 Z M15.0577778,17.9977778 C15.090913,17.7845266 15.1483229,17.5757633 15.2288889,17.3755556 L15.2288889,17.2511111 L15.4622222,16.7844444 L15.6177778,16.5511111 L15.8355556,16.2711111 L16.1622222,15.9288889 L16.2866667,15.8355556 C16.4500387,15.6937427 16.6272217,15.5686724 16.8155556,15.4622222 L16.8155556,15.4622222 C17.9987444,14.8188411 19.4392382,14.8749944 20.5687521,15.6085292 C21.698266,16.3420641 22.335434,17.635197 22.2288889,18.9777778 C22.1987384,19.2192329 22.1519606,19.4583194 22.0888889,19.6933333 L22.0888889,19.6933333 C22.0243686,19.8802144 21.9463865,20.0621727 21.8555556,20.2377778 L21.8555556,20.4088889 C21.7920833,20.5235896 21.719243,20.6328501 21.6377778,20.7355556 C21.568743,20.8406722 21.4906693,20.9395656 21.4044444,21.0311111 C21.3565722,21.0867954 21.3045732,21.1387944 21.2488889,21.1866667 C21.129103,21.3219072 20.9932878,21.4420515 20.8444444,21.5444444 L20.8444444,21.5444444 C20.4546539,21.8167668 20.0164295,22.0121199 19.5533333,22.12 C18.6061636,22.3641694 17.600648,22.2185654 16.7616457,21.7157487 C15.9226435,21.2129321 15.3201466,20.3948492 15.0888889,19.4444444 C14.9958109,18.9719477 14.9958109,18.4858301 15.0888889,18.0133333 L15.0577778,17.9977778 Z" id="Shape" fill="#57B057"></path>
                    <path d="M18.6666667,5.92659039 C13.5110052,5.91407649 8.85599919,9.01008266 6.87428299,13.769684 C4.89256678,18.5292853 5.97485443,24.0140814 9.61600902,27.6641495 C13.2571636,31.3142175 18.7392972,32.4099122 23.5037295,30.439839 C28.2681618,28.4697659 31.3755556,23.8223435 31.3755556,18.6666667 C31.3755556,11.6426907 25.6906217,5.94381923 18.6666667,5.92659039 Z M18.34,22.3066667 C16.330653,22.1276085 14.8461741,20.3546926 15.0229824,18.3451464 C15.1997907,16.3356002 16.9710434,14.8491372 18.9807863,15.0236953 C20.9905292,15.1982535 22.4789745,16.9678407 22.3066667,18.9777778 C22.228063,19.9534483 21.7598219,20.8563453 21.0076227,21.4826902 C20.2554235,22.1090351 19.2826635,22.4060378 18.3088889,22.3066667 L18.34,22.3066667 Z" id="Shape" fill="#88C788"></path>
                    <path d="M36.9755556,19.5533333 L29.5555556,36.1977778 L29.5555556,45.8888889 C29.5126458,46.1861518 29.6685453,46.4766597 29.9399774,46.6052329 C30.2114096,46.733806 30.5349516,46.6704019 30.7377778,46.4488889 L37.9711111,40.5222222 L45.9044444,23.7222222 L36.9755556,19.5533333 Z" id="Path" fill="#88C788"></path>
                    <path d="M46.6666667,22.0422222 L46.9466667,21.4666667 C47.618073,20.2619374 47.2034075,18.7414972 46.0133333,18.0444444 L41.16,15.7266667 C40.5684056,15.4882411 39.9058662,15.4972527 39.3209753,15.7516802 C38.7360845,16.0061077 38.2777941,16.4846572 38.0488889,17.08 L37.6755556,17.92 L46.6666667,22.0422222 Z" id="Path" fill="#88C788"></path>
                    <polygon id="Path" fill="#57B057" points="37.3955556 19.74 38.0644444 18.1066667 46.2466667 21.8711111 45.5 23.5511111"></polygon>
                </g>
            </g>
            <rect id="TopBar-Copy" fill="#E5F1FF" fill-rule="nonzero" x="0" y="0" width="320" height="113"></rect>
            <g id="proj-dok" transform="translate(8.000000, 4.000000)">
                <g id="Rahmen">
                    <rect id="Rectangle" x="0" y="0" width="56" height="56"></rect>
                </g>
                <g id="Ebene_1" transform="translate(6.222222, 2.555556)" fill-rule="nonzero">
                    <path d="M20.9844444,40.2377778 L20.9844444,4.46 L26.1177778,4.46 C27.5954463,4.46 28.7933333,5.65788702 28.7933333,7.13555556 L28.7933333,37.5622222 C28.7933333,39.0398908 27.5954463,40.2377778 26.1177778,40.2377778 L20.9844444,40.2377778 Z" id="Path" fill="#648BC7"></path>
                    <path d="M26.1177778,5.22222222 C27.1503221,5.2388794 27.9833428,6.07190014 28,7.10444444 L28,37.5622222 C27.9833428,38.5947665 27.1503221,39.4277873 26.1177778,39.4444444 L21.7777778,39.4444444 L21.7777778,5.22222222 L26.1488889,5.22222222 M26.1488889,3.66666667 L20.4866667,3.66666667 C20.3439431,3.67439812 20.2299537,3.78838753 20.2222222,3.93111111 L20.2222222,40.7355556 C20.2299537,40.8782791 20.3439431,40.9922685 20.4866667,41 L26.1177778,41 C28.01641,41 29.5555556,39.4608545 29.5555556,37.5622222 L29.5555556,7.10444444 C29.5555556,6.19268909 29.1933622,5.31827686 28.5486538,4.67356847 C27.9039454,4.02886007 27.0295331,3.66666667 26.1177778,3.66666667 L26.1488889,3.66666667 Z" id="Shape" fill="#648BC7"></path>
                    <path d="M21.7777778,3.27777778 L21.7777778,0.89777778 C21.7900229,0.67770159 21.6877644,0.46690215 21.5073409,0.34028919 C21.3269175,0.21367623 21.0939066,0.18919893 20.8911111,0.27555556 L0.917777778,3.55777778 C0.387450886,3.64871878 -5.1021584e-08,4.10859897 -5.1021584e-08,4.64666667 L-5.1021584e-08,40.02 C-5.1021584e-08,40.5580677 0.387450886,41.0179479 0.917777778,41.1088889 L20.8911111,44.3911111 C21.0939066,44.4774677 21.3269175,44.4529904 21.5073409,44.3263775 C21.6877644,44.1997645 21.7900229,43.9889651 21.7777778,43.7688889 L21.7777778,3.32444444 L21.7777778,3.27777778 Z" id="Path" fill="#B1C9E8"></path>
                    <path d="M38.8888889,48.7777778 L30.3333333,48.7777778 C28.1855593,48.7777778 26.4444444,47.0366629 26.4444444,44.8888889 L26.4444444,26.2222222 C26.4444444,25.1908248 26.8541655,24.2016707 27.5834736,23.4723625 C28.3127818,22.7430544 29.3019359,22.3333333 30.3333333,22.3333333 L42.7777778,22.3333333 C44.9255518,22.3333333 46.6666667,24.0744482 46.6666667,26.2222222 L46.6666667,41 L38.8888889,48.7777778 Z" id="Path" fill="#B1C9E8"></path>
                    <path d="M46.6666667,40.999944 L43.2133333,40.999944 C42.0651514,40.9958474 40.9627976,41.4501236 40.150905,42.2620162 C39.3390125,43.0739087 38.8847363,44.1762625 38.8888329,45.3244444 L38.8888329,48.7777778" id="Path" fill="#648BC7"></path>
                </g>
            </g>
        </g>
    </g>
</svg>
