<svg xmlns="http://www.w3.org/2000/svg" viewBox="0 0 36 36">
  <defs>
    <style>
      .cls-1 {
        fill: none;
      }
      .cls-2 {
        fill: #ffd300;
      }
      .cls-3 {
        fill: #ffbf00;
      }
      .cls-4 {
        fill: #707070;
      }
      .cls-5 {
        fill: #87b0b8;
      }
      .cls-6 {
        fill: #83aab3;
      }
    </style>
  </defs>
  <title>lieferanten</title>
  <g id="Rahmen"><rect class="cls-1" width="36" height="36"/><polygon class="cls-1" points="20.25 14.63 20.25 14.63 20.25 14.63 20.25 14.63"/><polygon class="cls-1" points="15.75 14.63 15.75 14.63 15.75 14.63 15.75 14.63"/></g>
  <g id="Ebene_1" data-name="Ebene 1"><path class="cls-2" d="M31,27l-.39-7H5.4L5,27.31,6,29l3,1H22.55l4.55,0L30,29Z"/><path class="cls-3" d="M10.27,21.88h0L11,24.36a45.75,45.75,0,0,0,7,.6h0a45.7,45.7,0,0,0,7-.6l.73-2.51-2.24-.27s-2.6-.17-5.48-.17h0c-2.88,0-5.49.18-5.49.18Z"/><polygon class="cls-4" points="30.92 29.26 30.92 29.26 30.91 29.26 30.92 29.26"/><path class="cls-3" d="M5,28v5c0,.4.32,1,.72,1h2.5c.38,0,.78-.63.78-1V29.58Z"/><path class="cls-3" d="M27,29.46V33c0,.4.32,1,.72,1h2.5c.38,0,.78-.63.78-1V28Z"/><path class="cls-5" d="M6.65,16s1,.17,3,.33Z"/><path class="cls-5" d="M11.24,16.47l-1.56-.11Z"/><path class="cls-6" d="M29.35,16l-3,.33C28.36,16.19,29.35,16,29.35,16Z"/><path class="cls-6" d="M26.32,16.36l-1.56.11Z"/><path
    class="cls-2"
    d="M32.35,14h-.79a.64.64,0,0,0-.64.64v1.94h-.65V14S29.64,6.24,29,4.36C28.78,3.85,27,3,18,3S7.3,3.77,7,4.36C6.29,6.19,5.73,14,5.73,14v2.58H5.08V14.62A.64.64,0,0,0,4.44,14H3.75a.65.65,0,0,0-.65.64v2.59a3.66,3.66,0,0,0,1,1.94H5.51l0,.64h0l.29.05L6.6,20l3.67,1.9L13,22H23l2.73-.13L29.4,20l.83-.13.29-.05h0l0-.64H32a3.66,3.66,0,0,0,1-1.94V14.62A.65.65,0,0,0,32.35,14Z"/><path class="cls-3" d="M27.55,8.26A1.42,1.42,0,0,0,26.14,7H9.86A1.42,1.42,0,0,0,8.45,8.26L7.5,15.48l2.76.32h.05l1.44.1L13,16l2.94.05h4.22L23.05,16l1.2-.06,1.44-.1h0l2.76-.32ZM15.92,14.14Zm4.16,0Z"/></g>
</svg>
